<mxfile host="app.diagrams.net" modified="2024-01-31T16:09:47.316Z" agent="Mozilla/5.0 (Windows NT 10.0; Win64; x64) AppleWebKit/537.36 (KHTML, like Gecko) Chrome/121.0.0.0 Safari/537.36" version="23.0.2" etag="tjRiPcriSY9ty78-__mb" type="device">
  <diagram id="6YfChUAizji6oMgrDc6K" name="第 1 页">
    <mxGraphModel dx="1106" dy="711" grid="1" gridSize="10" guides="1" tooltips="1" connect="1" arrows="1" fold="1" page="1" pageScale="1" pageWidth="827" pageHeight="1169" math="0" shadow="0">
      <root>
        <mxCell id="0" />
        <mxCell id="1" parent="0" />
        <mxCell id="cwTpUSN9C7CvX9NeSyIw-108" value="" style="group" vertex="1" connectable="0" parent="1">
          <mxGeometry x="124" y="160" width="580" height="560" as="geometry" />
        </mxCell>
        <mxCell id="cwTpUSN9C7CvX9NeSyIw-1" value="" style="ellipse;whiteSpace=wrap;html=1;aspect=fixed;strokeWidth=2;" vertex="1" parent="cwTpUSN9C7CvX9NeSyIw-108">
          <mxGeometry x="70" width="40" height="40" as="geometry" />
        </mxCell>
        <mxCell id="cwTpUSN9C7CvX9NeSyIw-2" value="&lt;font style=&quot;font-size: 20px;&quot; face=&quot;Times New Roman&quot;&gt;V&lt;sub&gt;1&lt;/sub&gt;&lt;/font&gt;" style="text;html=1;align=center;verticalAlign=middle;resizable=0;points=[];autosize=1;strokeColor=none;fillColor=none;" vertex="1" parent="cwTpUSN9C7CvX9NeSyIw-108">
          <mxGeometry x="65" width="50" height="40" as="geometry" />
        </mxCell>
        <mxCell id="cwTpUSN9C7CvX9NeSyIw-7" value="" style="ellipse;whiteSpace=wrap;html=1;aspect=fixed;strokeWidth=5;gradientColor=none;fillStyle=auto;" vertex="1" parent="cwTpUSN9C7CvX9NeSyIw-108">
          <mxGeometry x="190" width="40" height="40" as="geometry" />
        </mxCell>
        <mxCell id="cwTpUSN9C7CvX9NeSyIw-8" value="&lt;font style=&quot;font-size: 20px;&quot; face=&quot;Times New Roman&quot;&gt;V&lt;sub&gt;2&lt;/sub&gt;&lt;/font&gt;" style="text;html=1;align=center;verticalAlign=middle;resizable=0;points=[];autosize=1;strokeColor=none;fillColor=none;" vertex="1" parent="cwTpUSN9C7CvX9NeSyIw-108">
          <mxGeometry x="185" width="50" height="40" as="geometry" />
        </mxCell>
        <mxCell id="cwTpUSN9C7CvX9NeSyIw-9" value="" style="ellipse;whiteSpace=wrap;html=1;aspect=fixed;strokeWidth=2;" vertex="1" parent="cwTpUSN9C7CvX9NeSyIw-108">
          <mxGeometry x="70" y="120" width="40" height="40" as="geometry" />
        </mxCell>
        <mxCell id="cwTpUSN9C7CvX9NeSyIw-10" value="&lt;font style=&quot;font-size: 20px;&quot; face=&quot;Times New Roman&quot;&gt;V&lt;sub&gt;4&lt;/sub&gt;&lt;/font&gt;" style="text;html=1;align=center;verticalAlign=middle;resizable=0;points=[];autosize=1;strokeColor=none;fillColor=none;" vertex="1" parent="cwTpUSN9C7CvX9NeSyIw-108">
          <mxGeometry x="65" y="120" width="50" height="40" as="geometry" />
        </mxCell>
        <mxCell id="cwTpUSN9C7CvX9NeSyIw-11" value="" style="ellipse;whiteSpace=wrap;html=1;aspect=fixed;strokeWidth=2;" vertex="1" parent="cwTpUSN9C7CvX9NeSyIw-108">
          <mxGeometry x="190" y="120" width="40" height="40" as="geometry" />
        </mxCell>
        <mxCell id="cwTpUSN9C7CvX9NeSyIw-12" value="&lt;font style=&quot;font-size: 20px;&quot; face=&quot;Times New Roman&quot;&gt;V&lt;sub&gt;3&lt;/sub&gt;&lt;/font&gt;" style="text;html=1;align=center;verticalAlign=middle;resizable=0;points=[];autosize=1;strokeColor=none;fillColor=none;" vertex="1" parent="cwTpUSN9C7CvX9NeSyIw-108">
          <mxGeometry x="185" y="120" width="50" height="40" as="geometry" />
        </mxCell>
        <mxCell id="cwTpUSN9C7CvX9NeSyIw-21" style="edgeStyle=orthogonalEdgeStyle;rounded=0;orthogonalLoop=1;jettySize=auto;html=1;strokeWidth=2;" edge="1" parent="cwTpUSN9C7CvX9NeSyIw-108">
          <mxGeometry relative="1" as="geometry">
            <mxPoint x="113" y="11.830000000000013" as="sourcePoint" />
            <mxPoint x="188" y="12" as="targetPoint" />
          </mxGeometry>
        </mxCell>
        <mxCell id="cwTpUSN9C7CvX9NeSyIw-23" style="edgeStyle=orthogonalEdgeStyle;rounded=0;orthogonalLoop=1;jettySize=auto;html=1;strokeWidth=2;exitX=0.023;exitY=0.758;exitDx=0;exitDy=0;exitPerimeter=0;" edge="1" parent="cwTpUSN9C7CvX9NeSyIw-108">
          <mxGeometry relative="1" as="geometry">
            <mxPoint x="186.14999999999998" y="29.319999999999993" as="sourcePoint" />
            <mxPoint x="112" y="29" as="targetPoint" />
          </mxGeometry>
        </mxCell>
        <mxCell id="cwTpUSN9C7CvX9NeSyIw-24" style="edgeStyle=orthogonalEdgeStyle;rounded=0;orthogonalLoop=1;jettySize=auto;html=1;strokeWidth=2;" edge="1" parent="cwTpUSN9C7CvX9NeSyIw-108">
          <mxGeometry relative="1" as="geometry">
            <mxPoint x="113" y="139.83000000000004" as="sourcePoint" />
            <mxPoint x="188" y="140" as="targetPoint" />
          </mxGeometry>
        </mxCell>
        <mxCell id="cwTpUSN9C7CvX9NeSyIw-25" style="edgeStyle=orthogonalEdgeStyle;rounded=0;orthogonalLoop=1;jettySize=auto;html=1;strokeWidth=2;exitX=0.506;exitY=1.067;exitDx=0;exitDy=0;exitPerimeter=0;" edge="1" parent="cwTpUSN9C7CvX9NeSyIw-108" source="cwTpUSN9C7CvX9NeSyIw-2">
          <mxGeometry relative="1" as="geometry">
            <mxPoint x="90" y="47" as="sourcePoint" />
            <mxPoint x="90" y="117" as="targetPoint" />
          </mxGeometry>
        </mxCell>
        <mxCell id="cwTpUSN9C7CvX9NeSyIw-26" style="edgeStyle=orthogonalEdgeStyle;rounded=0;orthogonalLoop=1;jettySize=auto;html=1;strokeWidth=2;exitX=0.506;exitY=1.067;exitDx=0;exitDy=0;exitPerimeter=0;" edge="1" parent="cwTpUSN9C7CvX9NeSyIw-108">
          <mxGeometry relative="1" as="geometry">
            <mxPoint x="210" y="43" as="sourcePoint" />
            <mxPoint x="210" y="117" as="targetPoint" />
          </mxGeometry>
        </mxCell>
        <mxCell id="cwTpUSN9C7CvX9NeSyIw-27" value="" style="ellipse;whiteSpace=wrap;html=1;aspect=fixed;strokeWidth=5;" vertex="1" parent="cwTpUSN9C7CvX9NeSyIw-108">
          <mxGeometry x="70" y="200" width="40" height="40" as="geometry" />
        </mxCell>
        <mxCell id="cwTpUSN9C7CvX9NeSyIw-28" value="&lt;font style=&quot;font-size: 20px;&quot; face=&quot;Times New Roman&quot;&gt;V&lt;sub&gt;1&lt;/sub&gt;&lt;/font&gt;" style="text;html=1;align=center;verticalAlign=middle;resizable=0;points=[];autosize=1;strokeColor=none;fillColor=none;strokeWidth=5;" vertex="1" parent="cwTpUSN9C7CvX9NeSyIw-108">
          <mxGeometry x="65" y="200" width="50" height="40" as="geometry" />
        </mxCell>
        <mxCell id="cwTpUSN9C7CvX9NeSyIw-29" value="" style="ellipse;whiteSpace=wrap;html=1;aspect=fixed;strokeWidth=2;gradientColor=none;fillStyle=auto;" vertex="1" parent="cwTpUSN9C7CvX9NeSyIw-108">
          <mxGeometry x="190" y="200" width="40" height="40" as="geometry" />
        </mxCell>
        <mxCell id="cwTpUSN9C7CvX9NeSyIw-30" value="&lt;font style=&quot;font-size: 20px;&quot; face=&quot;Times New Roman&quot;&gt;V&lt;sub&gt;2&lt;/sub&gt;&lt;/font&gt;" style="text;html=1;align=center;verticalAlign=middle;resizable=0;points=[];autosize=1;strokeColor=none;fillColor=none;strokeWidth=2;" vertex="1" parent="cwTpUSN9C7CvX9NeSyIw-108">
          <mxGeometry x="185" y="200" width="50" height="40" as="geometry" />
        </mxCell>
        <mxCell id="cwTpUSN9C7CvX9NeSyIw-31" value="" style="ellipse;whiteSpace=wrap;html=1;aspect=fixed;strokeWidth=2;" vertex="1" parent="cwTpUSN9C7CvX9NeSyIw-108">
          <mxGeometry x="70" y="320" width="40" height="40" as="geometry" />
        </mxCell>
        <mxCell id="cwTpUSN9C7CvX9NeSyIw-32" value="&lt;font style=&quot;font-size: 20px;&quot; face=&quot;Times New Roman&quot;&gt;V&lt;sub&gt;4&lt;/sub&gt;&lt;/font&gt;" style="text;html=1;align=center;verticalAlign=middle;resizable=0;points=[];autosize=1;strokeColor=none;fillColor=none;" vertex="1" parent="cwTpUSN9C7CvX9NeSyIw-108">
          <mxGeometry x="65" y="320" width="50" height="40" as="geometry" />
        </mxCell>
        <mxCell id="cwTpUSN9C7CvX9NeSyIw-33" value="" style="ellipse;whiteSpace=wrap;html=1;aspect=fixed;strokeWidth=5;" vertex="1" parent="cwTpUSN9C7CvX9NeSyIw-108">
          <mxGeometry x="190" y="320" width="40" height="40" as="geometry" />
        </mxCell>
        <mxCell id="cwTpUSN9C7CvX9NeSyIw-34" value="&lt;font style=&quot;font-size: 20px;&quot; face=&quot;Times New Roman&quot;&gt;V&lt;sub&gt;3&lt;/sub&gt;&lt;/font&gt;" style="text;html=1;align=center;verticalAlign=middle;resizable=0;points=[];autosize=1;strokeColor=none;fillColor=none;strokeWidth=5;" vertex="1" parent="cwTpUSN9C7CvX9NeSyIw-108">
          <mxGeometry x="185" y="320" width="50" height="40" as="geometry" />
        </mxCell>
        <mxCell id="cwTpUSN9C7CvX9NeSyIw-35" style="edgeStyle=orthogonalEdgeStyle;rounded=0;orthogonalLoop=1;jettySize=auto;html=1;strokeWidth=2;" edge="1" parent="cwTpUSN9C7CvX9NeSyIw-108">
          <mxGeometry relative="1" as="geometry">
            <mxPoint x="113" y="211.83000000000004" as="sourcePoint" />
            <mxPoint x="188" y="212" as="targetPoint" />
          </mxGeometry>
        </mxCell>
        <mxCell id="cwTpUSN9C7CvX9NeSyIw-36" style="edgeStyle=orthogonalEdgeStyle;rounded=0;orthogonalLoop=1;jettySize=auto;html=1;strokeWidth=5;exitX=0.023;exitY=0.758;exitDx=0;exitDy=0;exitPerimeter=0;" edge="1" parent="cwTpUSN9C7CvX9NeSyIw-108">
          <mxGeometry relative="1" as="geometry">
            <mxPoint x="186.14999999999998" y="229.32" as="sourcePoint" />
            <mxPoint x="112" y="229" as="targetPoint" />
          </mxGeometry>
        </mxCell>
        <mxCell id="cwTpUSN9C7CvX9NeSyIw-37" style="edgeStyle=orthogonalEdgeStyle;rounded=0;orthogonalLoop=1;jettySize=auto;html=1;strokeWidth=2;" edge="1" parent="cwTpUSN9C7CvX9NeSyIw-108">
          <mxGeometry relative="1" as="geometry">
            <mxPoint x="113" y="339.83000000000004" as="sourcePoint" />
            <mxPoint x="188" y="340" as="targetPoint" />
          </mxGeometry>
        </mxCell>
        <mxCell id="cwTpUSN9C7CvX9NeSyIw-38" style="edgeStyle=orthogonalEdgeStyle;rounded=0;orthogonalLoop=1;jettySize=auto;html=1;strokeWidth=2;exitX=0.506;exitY=1.067;exitDx=0;exitDy=0;exitPerimeter=0;" edge="1" parent="cwTpUSN9C7CvX9NeSyIw-108" source="cwTpUSN9C7CvX9NeSyIw-28">
          <mxGeometry relative="1" as="geometry">
            <mxPoint x="90" y="247" as="sourcePoint" />
            <mxPoint x="90" y="317" as="targetPoint" />
          </mxGeometry>
        </mxCell>
        <mxCell id="cwTpUSN9C7CvX9NeSyIw-39" style="edgeStyle=orthogonalEdgeStyle;rounded=0;orthogonalLoop=1;jettySize=auto;html=1;strokeWidth=5;exitX=0.506;exitY=1.067;exitDx=0;exitDy=0;exitPerimeter=0;" edge="1" parent="cwTpUSN9C7CvX9NeSyIw-108">
          <mxGeometry relative="1" as="geometry">
            <mxPoint x="210" y="243" as="sourcePoint" />
            <mxPoint x="210" y="317" as="targetPoint" />
          </mxGeometry>
        </mxCell>
        <mxCell id="cwTpUSN9C7CvX9NeSyIw-40" value="" style="ellipse;whiteSpace=wrap;html=1;aspect=fixed;strokeWidth=2;" vertex="1" parent="cwTpUSN9C7CvX9NeSyIw-108">
          <mxGeometry x="70" y="400" width="40" height="40" as="geometry" />
        </mxCell>
        <mxCell id="cwTpUSN9C7CvX9NeSyIw-41" value="&lt;font style=&quot;font-size: 20px;&quot; face=&quot;Times New Roman&quot;&gt;V&lt;sub&gt;1&lt;/sub&gt;&lt;/font&gt;" style="text;html=1;align=center;verticalAlign=middle;resizable=0;points=[];autosize=1;strokeColor=none;fillColor=none;" vertex="1" parent="cwTpUSN9C7CvX9NeSyIw-108">
          <mxGeometry x="65" y="400" width="50" height="40" as="geometry" />
        </mxCell>
        <mxCell id="cwTpUSN9C7CvX9NeSyIw-42" value="" style="ellipse;whiteSpace=wrap;html=1;aspect=fixed;strokeWidth=2;gradientColor=none;fillStyle=auto;" vertex="1" parent="cwTpUSN9C7CvX9NeSyIw-108">
          <mxGeometry x="190" y="400" width="40" height="40" as="geometry" />
        </mxCell>
        <mxCell id="cwTpUSN9C7CvX9NeSyIw-43" value="&lt;font style=&quot;font-size: 20px;&quot; face=&quot;Times New Roman&quot;&gt;V&lt;sub&gt;2&lt;/sub&gt;&lt;/font&gt;" style="text;html=1;align=center;verticalAlign=middle;resizable=0;points=[];autosize=1;strokeColor=none;fillColor=none;strokeWidth=1;" vertex="1" parent="cwTpUSN9C7CvX9NeSyIw-108">
          <mxGeometry x="185" y="400" width="50" height="40" as="geometry" />
        </mxCell>
        <mxCell id="cwTpUSN9C7CvX9NeSyIw-44" value="" style="ellipse;whiteSpace=wrap;html=1;aspect=fixed;strokeWidth=5;" vertex="1" parent="cwTpUSN9C7CvX9NeSyIw-108">
          <mxGeometry x="70" y="520" width="40" height="40" as="geometry" />
        </mxCell>
        <mxCell id="cwTpUSN9C7CvX9NeSyIw-45" value="&lt;font style=&quot;font-size: 20px;&quot; face=&quot;Times New Roman&quot;&gt;V&lt;sub&gt;4&lt;/sub&gt;&lt;/font&gt;" style="text;html=1;align=center;verticalAlign=middle;resizable=0;points=[];autosize=1;strokeColor=none;fillColor=none;strokeWidth=5;" vertex="1" parent="cwTpUSN9C7CvX9NeSyIw-108">
          <mxGeometry x="65" y="520" width="50" height="40" as="geometry" />
        </mxCell>
        <mxCell id="cwTpUSN9C7CvX9NeSyIw-46" value="" style="ellipse;whiteSpace=wrap;html=1;aspect=fixed;strokeWidth=2;" vertex="1" parent="cwTpUSN9C7CvX9NeSyIw-108">
          <mxGeometry x="190" y="520" width="40" height="40" as="geometry" />
        </mxCell>
        <mxCell id="cwTpUSN9C7CvX9NeSyIw-47" value="&lt;font style=&quot;font-size: 20px;&quot; face=&quot;Times New Roman&quot;&gt;V&lt;sub&gt;3&lt;/sub&gt;&lt;/font&gt;" style="text;html=1;align=center;verticalAlign=middle;resizable=0;points=[];autosize=1;strokeColor=none;fillColor=none;" vertex="1" parent="cwTpUSN9C7CvX9NeSyIw-108">
          <mxGeometry x="185" y="520" width="50" height="40" as="geometry" />
        </mxCell>
        <mxCell id="cwTpUSN9C7CvX9NeSyIw-48" style="edgeStyle=orthogonalEdgeStyle;rounded=0;orthogonalLoop=1;jettySize=auto;html=1;strokeWidth=2;" edge="1" parent="cwTpUSN9C7CvX9NeSyIw-108">
          <mxGeometry relative="1" as="geometry">
            <mxPoint x="113" y="411.83000000000004" as="sourcePoint" />
            <mxPoint x="188" y="412" as="targetPoint" />
          </mxGeometry>
        </mxCell>
        <mxCell id="cwTpUSN9C7CvX9NeSyIw-49" style="edgeStyle=orthogonalEdgeStyle;rounded=0;orthogonalLoop=1;jettySize=auto;html=1;strokeWidth=2;exitX=0.023;exitY=0.758;exitDx=0;exitDy=0;exitPerimeter=0;" edge="1" parent="cwTpUSN9C7CvX9NeSyIw-108">
          <mxGeometry relative="1" as="geometry">
            <mxPoint x="186.14999999999998" y="429.31999999999994" as="sourcePoint" />
            <mxPoint x="112" y="429" as="targetPoint" />
          </mxGeometry>
        </mxCell>
        <mxCell id="cwTpUSN9C7CvX9NeSyIw-50" style="edgeStyle=orthogonalEdgeStyle;rounded=0;orthogonalLoop=1;jettySize=auto;html=1;strokeWidth=2;" edge="1" parent="cwTpUSN9C7CvX9NeSyIw-108">
          <mxGeometry relative="1" as="geometry">
            <mxPoint x="113" y="539.83" as="sourcePoint" />
            <mxPoint x="188" y="540" as="targetPoint" />
          </mxGeometry>
        </mxCell>
        <mxCell id="cwTpUSN9C7CvX9NeSyIw-51" style="edgeStyle=orthogonalEdgeStyle;rounded=0;orthogonalLoop=1;jettySize=auto;html=1;strokeWidth=5;exitX=0.506;exitY=1.067;exitDx=0;exitDy=0;exitPerimeter=0;" edge="1" parent="cwTpUSN9C7CvX9NeSyIw-108" source="cwTpUSN9C7CvX9NeSyIw-41">
          <mxGeometry relative="1" as="geometry">
            <mxPoint x="90" y="447" as="sourcePoint" />
            <mxPoint x="90" y="517" as="targetPoint" />
          </mxGeometry>
        </mxCell>
        <mxCell id="cwTpUSN9C7CvX9NeSyIw-52" style="edgeStyle=orthogonalEdgeStyle;rounded=0;orthogonalLoop=1;jettySize=auto;html=1;strokeWidth=2;exitX=0.506;exitY=1.067;exitDx=0;exitDy=0;exitPerimeter=0;" edge="1" parent="cwTpUSN9C7CvX9NeSyIw-108">
          <mxGeometry relative="1" as="geometry">
            <mxPoint x="210" y="443" as="sourcePoint" />
            <mxPoint x="210" y="517" as="targetPoint" />
          </mxGeometry>
        </mxCell>
        <mxCell id="cwTpUSN9C7CvX9NeSyIw-66" value="" style="shape=table;startSize=0;container=1;collapsible=0;childLayout=tableLayout;fontFamily=Times New Roman;fontSize=20;strokeWidth=2;shadow=0;" vertex="1" parent="cwTpUSN9C7CvX9NeSyIw-108">
          <mxGeometry x="280" y="40" width="300" height="80" as="geometry" />
        </mxCell>
        <mxCell id="cwTpUSN9C7CvX9NeSyIw-67" value="" style="shape=tableRow;horizontal=0;startSize=0;swimlaneHead=0;swimlaneBody=0;strokeColor=inherit;top=0;left=0;bottom=0;right=0;collapsible=0;dropTarget=0;fillColor=none;points=[[0,0.5],[1,0.5]];portConstraint=eastwest;fontFamily=Times New Roman;fontSize=20;strokeWidth=2;shadow=0;" vertex="1" parent="cwTpUSN9C7CvX9NeSyIw-66">
          <mxGeometry width="300" height="40" as="geometry" />
        </mxCell>
        <mxCell id="cwTpUSN9C7CvX9NeSyIw-68" value="V" style="shape=partialRectangle;html=1;whiteSpace=wrap;connectable=0;strokeColor=inherit;overflow=hidden;fillColor=none;top=0;left=0;bottom=0;right=0;pointerEvents=1;fontFamily=Times New Roman;fontSize=20;strokeWidth=2;shadow=0;" vertex="1" parent="cwTpUSN9C7CvX9NeSyIw-67">
          <mxGeometry width="60" height="40" as="geometry">
            <mxRectangle width="60" height="40" as="alternateBounds" />
          </mxGeometry>
        </mxCell>
        <mxCell id="cwTpUSN9C7CvX9NeSyIw-69" value="V&lt;sub style=&quot;font-size: 20px;&quot;&gt;1&lt;/sub&gt;" style="shape=partialRectangle;html=1;whiteSpace=wrap;connectable=0;strokeColor=inherit;overflow=hidden;fillColor=none;top=0;left=0;bottom=0;right=0;pointerEvents=1;fontFamily=Times New Roman;fontSize=20;strokeWidth=2;shadow=0;" vertex="1" parent="cwTpUSN9C7CvX9NeSyIw-67">
          <mxGeometry x="60" width="60" height="40" as="geometry">
            <mxRectangle width="60" height="40" as="alternateBounds" />
          </mxGeometry>
        </mxCell>
        <mxCell id="cwTpUSN9C7CvX9NeSyIw-70" value="V&lt;sub&gt;2&lt;/sub&gt;" style="shape=partialRectangle;html=1;whiteSpace=wrap;connectable=0;strokeColor=inherit;overflow=hidden;fillColor=none;top=0;left=0;bottom=0;right=0;pointerEvents=1;fontFamily=Times New Roman;fontSize=20;strokeWidth=2;shadow=0;" vertex="1" parent="cwTpUSN9C7CvX9NeSyIw-67">
          <mxGeometry x="120" width="60" height="40" as="geometry">
            <mxRectangle width="60" height="40" as="alternateBounds" />
          </mxGeometry>
        </mxCell>
        <mxCell id="cwTpUSN9C7CvX9NeSyIw-71" value="V&lt;sub&gt;3&lt;/sub&gt;" style="shape=partialRectangle;html=1;whiteSpace=wrap;connectable=0;strokeColor=inherit;overflow=hidden;fillColor=none;top=0;left=0;bottom=0;right=0;pointerEvents=1;fontFamily=Times New Roman;fontSize=20;strokeWidth=2;shadow=0;" vertex="1" parent="cwTpUSN9C7CvX9NeSyIw-67">
          <mxGeometry x="180" width="60" height="40" as="geometry">
            <mxRectangle width="60" height="40" as="alternateBounds" />
          </mxGeometry>
        </mxCell>
        <mxCell id="cwTpUSN9C7CvX9NeSyIw-72" value="V&lt;sub&gt;4&lt;/sub&gt;" style="shape=partialRectangle;html=1;whiteSpace=wrap;connectable=0;strokeColor=inherit;overflow=hidden;fillColor=none;top=0;left=0;bottom=0;right=0;pointerEvents=1;fontFamily=Times New Roman;fontSize=20;strokeWidth=2;shadow=0;" vertex="1" parent="cwTpUSN9C7CvX9NeSyIw-67">
          <mxGeometry x="240" width="60" height="40" as="geometry">
            <mxRectangle width="60" height="40" as="alternateBounds" />
          </mxGeometry>
        </mxCell>
        <mxCell id="cwTpUSN9C7CvX9NeSyIw-73" value="" style="shape=tableRow;horizontal=0;startSize=0;swimlaneHead=0;swimlaneBody=0;strokeColor=inherit;top=0;left=0;bottom=0;right=0;collapsible=0;dropTarget=0;fillColor=none;points=[[0,0.5],[1,0.5]];portConstraint=eastwest;fontFamily=Times New Roman;fontSize=20;strokeWidth=2;shadow=0;" vertex="1" parent="cwTpUSN9C7CvX9NeSyIw-66">
          <mxGeometry y="40" width="300" height="40" as="geometry" />
        </mxCell>
        <mxCell id="cwTpUSN9C7CvX9NeSyIw-74" value="dist" style="shape=partialRectangle;html=1;whiteSpace=wrap;connectable=0;strokeColor=inherit;overflow=hidden;fillColor=none;top=0;left=0;bottom=0;right=0;pointerEvents=1;fontFamily=Times New Roman;fontSize=20;strokeWidth=2;shadow=0;" vertex="1" parent="cwTpUSN9C7CvX9NeSyIw-73">
          <mxGeometry width="60" height="40" as="geometry">
            <mxRectangle width="60" height="40" as="alternateBounds" />
          </mxGeometry>
        </mxCell>
        <mxCell id="cwTpUSN9C7CvX9NeSyIw-75" value="∞" style="shape=partialRectangle;html=1;whiteSpace=wrap;connectable=0;strokeColor=inherit;overflow=hidden;fillColor=none;top=0;left=0;bottom=0;right=0;pointerEvents=1;fontFamily=Times New Roman;fontSize=20;strokeWidth=2;shadow=0;" vertex="1" parent="cwTpUSN9C7CvX9NeSyIw-73">
          <mxGeometry x="60" width="60" height="40" as="geometry">
            <mxRectangle width="60" height="40" as="alternateBounds" />
          </mxGeometry>
        </mxCell>
        <mxCell id="cwTpUSN9C7CvX9NeSyIw-76" value="0" style="shape=partialRectangle;html=1;whiteSpace=wrap;connectable=0;strokeColor=inherit;overflow=hidden;fillColor=none;top=0;left=0;bottom=0;right=0;pointerEvents=1;fontFamily=Times New Roman;fontSize=20;strokeWidth=2;shadow=0;" vertex="1" parent="cwTpUSN9C7CvX9NeSyIw-73">
          <mxGeometry x="120" width="60" height="40" as="geometry">
            <mxRectangle width="60" height="40" as="alternateBounds" />
          </mxGeometry>
        </mxCell>
        <mxCell id="cwTpUSN9C7CvX9NeSyIw-77" value="∞" style="shape=partialRectangle;html=1;whiteSpace=wrap;connectable=0;strokeColor=inherit;overflow=hidden;fillColor=none;top=0;left=0;bottom=0;right=0;pointerEvents=1;fontFamily=Times New Roman;fontSize=20;strokeWidth=2;shadow=0;" vertex="1" parent="cwTpUSN9C7CvX9NeSyIw-73">
          <mxGeometry x="180" width="60" height="40" as="geometry">
            <mxRectangle width="60" height="40" as="alternateBounds" />
          </mxGeometry>
        </mxCell>
        <mxCell id="cwTpUSN9C7CvX9NeSyIw-78" value="∞" style="shape=partialRectangle;html=1;whiteSpace=wrap;connectable=0;strokeColor=inherit;overflow=hidden;fillColor=none;top=0;left=0;bottom=0;right=0;pointerEvents=1;fontFamily=Times New Roman;fontSize=20;strokeWidth=2;shadow=0;" vertex="1" parent="cwTpUSN9C7CvX9NeSyIw-73">
          <mxGeometry x="240" width="60" height="40" as="geometry">
            <mxRectangle width="60" height="40" as="alternateBounds" />
          </mxGeometry>
        </mxCell>
        <mxCell id="cwTpUSN9C7CvX9NeSyIw-79" value="" style="shape=table;startSize=0;container=1;collapsible=0;childLayout=tableLayout;fontFamily=Times New Roman;fontSize=20;strokeWidth=2;shadow=0;" vertex="1" parent="cwTpUSN9C7CvX9NeSyIw-108">
          <mxGeometry x="280" y="240" width="300" height="80" as="geometry" />
        </mxCell>
        <mxCell id="cwTpUSN9C7CvX9NeSyIw-80" value="" style="shape=tableRow;horizontal=0;startSize=0;swimlaneHead=0;swimlaneBody=0;strokeColor=inherit;top=0;left=0;bottom=0;right=0;collapsible=0;dropTarget=0;fillColor=none;points=[[0,0.5],[1,0.5]];portConstraint=eastwest;fontFamily=Times New Roman;fontSize=20;strokeWidth=2;shadow=0;" vertex="1" parent="cwTpUSN9C7CvX9NeSyIw-79">
          <mxGeometry width="300" height="40" as="geometry" />
        </mxCell>
        <mxCell id="cwTpUSN9C7CvX9NeSyIw-81" value="V" style="shape=partialRectangle;html=1;whiteSpace=wrap;connectable=0;strokeColor=inherit;overflow=hidden;fillColor=none;top=0;left=0;bottom=0;right=0;pointerEvents=1;fontFamily=Times New Roman;fontSize=20;strokeWidth=2;shadow=0;" vertex="1" parent="cwTpUSN9C7CvX9NeSyIw-80">
          <mxGeometry width="60" height="40" as="geometry">
            <mxRectangle width="60" height="40" as="alternateBounds" />
          </mxGeometry>
        </mxCell>
        <mxCell id="cwTpUSN9C7CvX9NeSyIw-82" value="V&lt;sub style=&quot;font-size: 20px;&quot;&gt;1&lt;/sub&gt;" style="shape=partialRectangle;html=1;whiteSpace=wrap;connectable=0;strokeColor=inherit;overflow=hidden;fillColor=none;top=0;left=0;bottom=0;right=0;pointerEvents=1;fontFamily=Times New Roman;fontSize=20;strokeWidth=2;shadow=0;" vertex="1" parent="cwTpUSN9C7CvX9NeSyIw-80">
          <mxGeometry x="60" width="60" height="40" as="geometry">
            <mxRectangle width="60" height="40" as="alternateBounds" />
          </mxGeometry>
        </mxCell>
        <mxCell id="cwTpUSN9C7CvX9NeSyIw-83" value="V&lt;sub&gt;2&lt;/sub&gt;" style="shape=partialRectangle;html=1;whiteSpace=wrap;connectable=0;strokeColor=inherit;overflow=hidden;fillColor=none;top=0;left=0;bottom=0;right=0;pointerEvents=1;fontFamily=Times New Roman;fontSize=20;strokeWidth=2;shadow=0;" vertex="1" parent="cwTpUSN9C7CvX9NeSyIw-80">
          <mxGeometry x="120" width="60" height="40" as="geometry">
            <mxRectangle width="60" height="40" as="alternateBounds" />
          </mxGeometry>
        </mxCell>
        <mxCell id="cwTpUSN9C7CvX9NeSyIw-84" value="V&lt;sub&gt;3&lt;/sub&gt;" style="shape=partialRectangle;html=1;whiteSpace=wrap;connectable=0;strokeColor=inherit;overflow=hidden;fillColor=none;top=0;left=0;bottom=0;right=0;pointerEvents=1;fontFamily=Times New Roman;fontSize=20;strokeWidth=2;shadow=0;" vertex="1" parent="cwTpUSN9C7CvX9NeSyIw-80">
          <mxGeometry x="180" width="60" height="40" as="geometry">
            <mxRectangle width="60" height="40" as="alternateBounds" />
          </mxGeometry>
        </mxCell>
        <mxCell id="cwTpUSN9C7CvX9NeSyIw-85" value="V&lt;sub&gt;4&lt;/sub&gt;" style="shape=partialRectangle;html=1;whiteSpace=wrap;connectable=0;strokeColor=inherit;overflow=hidden;fillColor=none;top=0;left=0;bottom=0;right=0;pointerEvents=1;fontFamily=Times New Roman;fontSize=20;strokeWidth=2;shadow=0;" vertex="1" parent="cwTpUSN9C7CvX9NeSyIw-80">
          <mxGeometry x="240" width="60" height="40" as="geometry">
            <mxRectangle width="60" height="40" as="alternateBounds" />
          </mxGeometry>
        </mxCell>
        <mxCell id="cwTpUSN9C7CvX9NeSyIw-86" value="" style="shape=tableRow;horizontal=0;startSize=0;swimlaneHead=0;swimlaneBody=0;strokeColor=inherit;top=0;left=0;bottom=0;right=0;collapsible=0;dropTarget=0;fillColor=none;points=[[0,0.5],[1,0.5]];portConstraint=eastwest;fontFamily=Times New Roman;fontSize=20;strokeWidth=2;shadow=0;" vertex="1" parent="cwTpUSN9C7CvX9NeSyIw-79">
          <mxGeometry y="40" width="300" height="40" as="geometry" />
        </mxCell>
        <mxCell id="cwTpUSN9C7CvX9NeSyIw-87" value="dist" style="shape=partialRectangle;html=1;whiteSpace=wrap;connectable=0;strokeColor=inherit;overflow=hidden;fillColor=none;top=0;left=0;bottom=0;right=0;pointerEvents=1;fontFamily=Times New Roman;fontSize=20;strokeWidth=2;shadow=0;" vertex="1" parent="cwTpUSN9C7CvX9NeSyIw-86">
          <mxGeometry width="60" height="40" as="geometry">
            <mxRectangle width="60" height="40" as="alternateBounds" />
          </mxGeometry>
        </mxCell>
        <mxCell id="cwTpUSN9C7CvX9NeSyIw-88" value="1" style="shape=partialRectangle;html=1;whiteSpace=wrap;connectable=0;strokeColor=inherit;overflow=hidden;fillColor=none;top=0;left=0;bottom=0;right=0;pointerEvents=1;fontFamily=Times New Roman;fontSize=20;strokeWidth=2;shadow=0;" vertex="1" parent="cwTpUSN9C7CvX9NeSyIw-86">
          <mxGeometry x="60" width="60" height="40" as="geometry">
            <mxRectangle width="60" height="40" as="alternateBounds" />
          </mxGeometry>
        </mxCell>
        <mxCell id="cwTpUSN9C7CvX9NeSyIw-89" value="0" style="shape=partialRectangle;html=1;whiteSpace=wrap;connectable=0;strokeColor=inherit;overflow=hidden;fillColor=none;top=0;left=0;bottom=0;right=0;pointerEvents=1;fontFamily=Times New Roman;fontSize=20;strokeWidth=2;shadow=0;" vertex="1" parent="cwTpUSN9C7CvX9NeSyIw-86">
          <mxGeometry x="120" width="60" height="40" as="geometry">
            <mxRectangle width="60" height="40" as="alternateBounds" />
          </mxGeometry>
        </mxCell>
        <mxCell id="cwTpUSN9C7CvX9NeSyIw-90" value="1" style="shape=partialRectangle;html=1;whiteSpace=wrap;connectable=0;strokeColor=inherit;overflow=hidden;fillColor=none;top=0;left=0;bottom=0;right=0;pointerEvents=1;fontFamily=Times New Roman;fontSize=20;strokeWidth=2;shadow=0;" vertex="1" parent="cwTpUSN9C7CvX9NeSyIw-86">
          <mxGeometry x="180" width="60" height="40" as="geometry">
            <mxRectangle width="60" height="40" as="alternateBounds" />
          </mxGeometry>
        </mxCell>
        <mxCell id="cwTpUSN9C7CvX9NeSyIw-91" value="∞" style="shape=partialRectangle;html=1;whiteSpace=wrap;connectable=0;strokeColor=inherit;overflow=hidden;fillColor=none;top=0;left=0;bottom=0;right=0;pointerEvents=1;fontFamily=Times New Roman;fontSize=20;strokeWidth=2;shadow=0;" vertex="1" parent="cwTpUSN9C7CvX9NeSyIw-86">
          <mxGeometry x="240" width="60" height="40" as="geometry">
            <mxRectangle width="60" height="40" as="alternateBounds" />
          </mxGeometry>
        </mxCell>
        <mxCell id="cwTpUSN9C7CvX9NeSyIw-92" value="" style="shape=table;startSize=0;container=1;collapsible=0;childLayout=tableLayout;fontFamily=Times New Roman;fontSize=20;strokeWidth=2;shadow=0;" vertex="1" parent="cwTpUSN9C7CvX9NeSyIw-108">
          <mxGeometry x="280" y="440" width="300" height="80" as="geometry" />
        </mxCell>
        <mxCell id="cwTpUSN9C7CvX9NeSyIw-93" value="" style="shape=tableRow;horizontal=0;startSize=0;swimlaneHead=0;swimlaneBody=0;strokeColor=inherit;top=0;left=0;bottom=0;right=0;collapsible=0;dropTarget=0;fillColor=none;points=[[0,0.5],[1,0.5]];portConstraint=eastwest;fontFamily=Times New Roman;fontSize=20;strokeWidth=2;shadow=0;" vertex="1" parent="cwTpUSN9C7CvX9NeSyIw-92">
          <mxGeometry width="300" height="40" as="geometry" />
        </mxCell>
        <mxCell id="cwTpUSN9C7CvX9NeSyIw-94" value="V" style="shape=partialRectangle;html=1;whiteSpace=wrap;connectable=0;strokeColor=inherit;overflow=hidden;fillColor=none;top=0;left=0;bottom=0;right=0;pointerEvents=1;fontFamily=Times New Roman;fontSize=20;strokeWidth=2;shadow=0;" vertex="1" parent="cwTpUSN9C7CvX9NeSyIw-93">
          <mxGeometry width="60" height="40" as="geometry">
            <mxRectangle width="60" height="40" as="alternateBounds" />
          </mxGeometry>
        </mxCell>
        <mxCell id="cwTpUSN9C7CvX9NeSyIw-95" value="V&lt;sub style=&quot;font-size: 20px;&quot;&gt;1&lt;/sub&gt;" style="shape=partialRectangle;html=1;whiteSpace=wrap;connectable=0;strokeColor=inherit;overflow=hidden;fillColor=none;top=0;left=0;bottom=0;right=0;pointerEvents=1;fontFamily=Times New Roman;fontSize=20;strokeWidth=2;shadow=0;" vertex="1" parent="cwTpUSN9C7CvX9NeSyIw-93">
          <mxGeometry x="60" width="60" height="40" as="geometry">
            <mxRectangle width="60" height="40" as="alternateBounds" />
          </mxGeometry>
        </mxCell>
        <mxCell id="cwTpUSN9C7CvX9NeSyIw-96" value="V&lt;sub&gt;2&lt;/sub&gt;" style="shape=partialRectangle;html=1;whiteSpace=wrap;connectable=0;strokeColor=inherit;overflow=hidden;fillColor=none;top=0;left=0;bottom=0;right=0;pointerEvents=1;fontFamily=Times New Roman;fontSize=20;strokeWidth=2;shadow=0;" vertex="1" parent="cwTpUSN9C7CvX9NeSyIw-93">
          <mxGeometry x="120" width="60" height="40" as="geometry">
            <mxRectangle width="60" height="40" as="alternateBounds" />
          </mxGeometry>
        </mxCell>
        <mxCell id="cwTpUSN9C7CvX9NeSyIw-97" value="V&lt;sub&gt;3&lt;/sub&gt;" style="shape=partialRectangle;html=1;whiteSpace=wrap;connectable=0;strokeColor=inherit;overflow=hidden;fillColor=none;top=0;left=0;bottom=0;right=0;pointerEvents=1;fontFamily=Times New Roman;fontSize=20;strokeWidth=2;shadow=0;" vertex="1" parent="cwTpUSN9C7CvX9NeSyIw-93">
          <mxGeometry x="180" width="60" height="40" as="geometry">
            <mxRectangle width="60" height="40" as="alternateBounds" />
          </mxGeometry>
        </mxCell>
        <mxCell id="cwTpUSN9C7CvX9NeSyIw-98" value="V&lt;sub&gt;4&lt;/sub&gt;" style="shape=partialRectangle;html=1;whiteSpace=wrap;connectable=0;strokeColor=inherit;overflow=hidden;fillColor=none;top=0;left=0;bottom=0;right=0;pointerEvents=1;fontFamily=Times New Roman;fontSize=20;strokeWidth=2;shadow=0;" vertex="1" parent="cwTpUSN9C7CvX9NeSyIw-93">
          <mxGeometry x="240" width="60" height="40" as="geometry">
            <mxRectangle width="60" height="40" as="alternateBounds" />
          </mxGeometry>
        </mxCell>
        <mxCell id="cwTpUSN9C7CvX9NeSyIw-99" value="" style="shape=tableRow;horizontal=0;startSize=0;swimlaneHead=0;swimlaneBody=0;strokeColor=inherit;top=0;left=0;bottom=0;right=0;collapsible=0;dropTarget=0;fillColor=none;points=[[0,0.5],[1,0.5]];portConstraint=eastwest;fontFamily=Times New Roman;fontSize=20;strokeWidth=2;shadow=0;" vertex="1" parent="cwTpUSN9C7CvX9NeSyIw-92">
          <mxGeometry y="40" width="300" height="40" as="geometry" />
        </mxCell>
        <mxCell id="cwTpUSN9C7CvX9NeSyIw-100" value="dist" style="shape=partialRectangle;html=1;whiteSpace=wrap;connectable=0;strokeColor=inherit;overflow=hidden;fillColor=none;top=0;left=0;bottom=0;right=0;pointerEvents=1;fontFamily=Times New Roman;fontSize=20;strokeWidth=2;shadow=0;" vertex="1" parent="cwTpUSN9C7CvX9NeSyIw-99">
          <mxGeometry width="60" height="40" as="geometry">
            <mxRectangle width="60" height="40" as="alternateBounds" />
          </mxGeometry>
        </mxCell>
        <mxCell id="cwTpUSN9C7CvX9NeSyIw-101" value="1" style="shape=partialRectangle;html=1;whiteSpace=wrap;connectable=0;strokeColor=inherit;overflow=hidden;fillColor=none;top=0;left=0;bottom=0;right=0;pointerEvents=1;fontFamily=Times New Roman;fontSize=20;strokeWidth=2;shadow=0;" vertex="1" parent="cwTpUSN9C7CvX9NeSyIw-99">
          <mxGeometry x="60" width="60" height="40" as="geometry">
            <mxRectangle width="60" height="40" as="alternateBounds" />
          </mxGeometry>
        </mxCell>
        <mxCell id="cwTpUSN9C7CvX9NeSyIw-102" value="0" style="shape=partialRectangle;html=1;whiteSpace=wrap;connectable=0;strokeColor=inherit;overflow=hidden;fillColor=none;top=0;left=0;bottom=0;right=0;pointerEvents=1;fontFamily=Times New Roman;fontSize=20;strokeWidth=2;shadow=0;" vertex="1" parent="cwTpUSN9C7CvX9NeSyIw-99">
          <mxGeometry x="120" width="60" height="40" as="geometry">
            <mxRectangle width="60" height="40" as="alternateBounds" />
          </mxGeometry>
        </mxCell>
        <mxCell id="cwTpUSN9C7CvX9NeSyIw-103" value="1" style="shape=partialRectangle;html=1;whiteSpace=wrap;connectable=0;strokeColor=inherit;overflow=hidden;fillColor=none;top=0;left=0;bottom=0;right=0;pointerEvents=1;fontFamily=Times New Roman;fontSize=20;strokeWidth=2;shadow=0;" vertex="1" parent="cwTpUSN9C7CvX9NeSyIw-99">
          <mxGeometry x="180" width="60" height="40" as="geometry">
            <mxRectangle width="60" height="40" as="alternateBounds" />
          </mxGeometry>
        </mxCell>
        <mxCell id="cwTpUSN9C7CvX9NeSyIw-104" value="2" style="shape=partialRectangle;html=1;whiteSpace=wrap;connectable=0;strokeColor=inherit;overflow=hidden;fillColor=none;top=0;left=0;bottom=0;right=0;pointerEvents=1;fontFamily=Times New Roman;fontSize=20;strokeWidth=2;shadow=0;" vertex="1" parent="cwTpUSN9C7CvX9NeSyIw-99">
          <mxGeometry x="240" width="60" height="40" as="geometry">
            <mxRectangle width="60" height="40" as="alternateBounds" />
          </mxGeometry>
        </mxCell>
        <mxCell id="cwTpUSN9C7CvX9NeSyIw-105" value="&lt;font face=&quot;Times New Roman&quot;&gt;&lt;span style=&quot;font-size: 20px;&quot;&gt;(a)&lt;/span&gt;&lt;/font&gt;" style="text;html=1;align=center;verticalAlign=middle;resizable=0;points=[];autosize=1;strokeColor=none;fillColor=none;" vertex="1" parent="cwTpUSN9C7CvX9NeSyIw-108">
          <mxGeometry y="60" width="50" height="40" as="geometry" />
        </mxCell>
        <mxCell id="cwTpUSN9C7CvX9NeSyIw-106" value="&lt;font face=&quot;Times New Roman&quot;&gt;&lt;span style=&quot;font-size: 20px;&quot;&gt;(b)&lt;/span&gt;&lt;/font&gt;" style="text;html=1;align=center;verticalAlign=middle;resizable=0;points=[];autosize=1;strokeColor=none;fillColor=none;" vertex="1" parent="cwTpUSN9C7CvX9NeSyIw-108">
          <mxGeometry y="260" width="50" height="40" as="geometry" />
        </mxCell>
        <mxCell id="cwTpUSN9C7CvX9NeSyIw-107" value="&lt;font face=&quot;Times New Roman&quot;&gt;&lt;span style=&quot;font-size: 20px;&quot;&gt;(c)&lt;/span&gt;&lt;/font&gt;" style="text;html=1;align=center;verticalAlign=middle;resizable=0;points=[];autosize=1;strokeColor=none;fillColor=none;" vertex="1" parent="cwTpUSN9C7CvX9NeSyIw-108">
          <mxGeometry y="460" width="50" height="40" as="geometry" />
        </mxCell>
      </root>
    </mxGraphModel>
  </diagram>
</mxfile>
